<svg width="225" height="225" viewBox="0 0 225 225" fill="none" xmlns="http://www.w3.org/2000/svg">
<rect width="225" height="225" fill="white"/>
<path d="M53.59 173.85C46.33 162.79 42.1 149.59 42.1 135.4C42.1 96.64 73.63 65.11 112.39 65.11C151.15 65.11 182.68 96.64 182.68 135.4C182.68 149.58 178.44 162.79 171.19 173.85H190.87C196.58 162.24 199.8 149.19 199.8 135.4C199.8 87.2 160.59 48 112.4 48C64.21 48 25 87.21 25 135.4C25 149.19 28.22 162.24 33.93 173.85H53.59Z" fill="#060809"/>
<path d="M113.57 93.87C100.77 93.87 86.0399 99.9 78.0399 106.28L85.3399 121.65C91.7499 115.78 102.12 110.77 111.47 110.77C120.36 110.77 125.26 113.74 125.26 119.73C125.26 123.76 122 126.03 115.86 126.59C92.7999 128.71 74.8799 135.91 74.8799 153.61C74.8799 167.65 84.9999 176.13 101.65 176.13C112.79 176.13 121.54 169.94 126.26 161.77V173.84H147.02V123.25C147.03 102.36 132.5 93.87 113.57 93.87ZM107.51 159.91C100.78 159.91 97.0899 157.03 97.0899 152.3C97.0899 142.44 109.14 140.06 124.83 140.06C124.83 150.38 117.92 159.91 107.51 159.91Z" fill="#060809"/>
</svg>
