<svg width="225" height="225" viewBox="0 0 225 225" fill="none" xmlns="http://www.w3.org/2000/svg">
<rect width="225" height="225" fill="white"/>
<path d="M112.5 34C69.1484 34 34 69.1484 34 112.5C34 155.858 69.1484 191 112.5 191C155.858 191 191 155.858 191 112.5C191 69.1484 155.858 34 112.5 34ZM120.586 66.2112C123.225 66.1608 125.828 66.8375 128.108 68.1671L157.265 84.8942C167.044 90.5004 167.044 104.604 157.265 110.21L128.108 126.944C118.374 132.531 106.246 125.505 106.246 114.286V112.062C106.246 111.556 106.114 111.059 105.862 110.621C105.609 110.183 105.247 109.819 104.809 109.565C104.372 109.311 103.876 109.177 103.37 109.175C102.865 109.174 102.367 109.305 101.929 109.556L75.1275 124.929C74.6871 125.182 74.3212 125.546 74.0668 125.986C73.8124 126.425 73.6784 126.924 73.6784 127.431C73.6784 127.939 73.8124 128.438 74.0668 128.877C74.3212 129.316 74.6871 129.681 75.1275 129.934L101.922 145.306C102.36 145.561 102.858 145.695 103.365 145.696C103.871 145.696 104.369 145.563 104.808 145.31C105.247 145.056 105.611 144.691 105.863 144.252C106.116 143.813 106.248 143.314 106.246 142.808V138.326C106.246 136.148 108.601 134.781 110.492 135.867L117.302 139.772C117.743 140.024 118.111 140.389 118.366 140.829C118.621 141.269 118.755 141.769 118.754 142.278V144.175C118.754 155.394 106.626 162.419 96.8916 156.833L67.7354 140.106C57.9556 134.5 57.9556 120.396 67.7354 114.79L96.8916 98.056C106.626 92.4694 118.754 99.4952 118.754 110.714V112.938C118.754 115.162 121.148 116.543 123.071 115.444L149.873 100.071C150.313 99.8182 150.679 99.4537 150.933 99.0144C151.188 98.5751 151.322 98.0763 151.322 97.5686C151.322 97.0609 151.188 96.5622 150.933 96.1229C150.679 95.6836 150.313 95.3191 149.873 95.0665L123.078 79.687C122.639 79.4346 122.142 79.302 121.636 79.3024C121.13 79.3028 120.633 79.4363 120.195 79.6895C119.757 79.9427 119.393 80.3066 119.14 80.7448C118.887 81.1829 118.754 81.68 118.754 82.1859V86.667C118.754 88.8453 116.399 90.206 114.508 89.1201L107.698 85.2147C107.257 84.9627 106.889 84.598 106.634 84.1579C106.379 83.7178 106.245 83.218 106.246 82.7093V80.8122C106.246 72.4061 113.069 66.3616 120.586 66.2112Z" fill="black"/>
</svg>
