<svg width="225" height="225" viewBox="0 0 225 225" fill="none" xmlns="http://www.w3.org/2000/svg">
<rect width="225" height="225" fill="white"/>
<path d="M134.52 49.7497C131.3 47.887 127.63 46.9372 123.907 47.0032C113.303 47.2145 103.677 55.7018 103.677 67.5051V70.1688C103.678 70.8828 103.868 71.5839 104.227 72.2015C104.587 72.8192 105.104 73.3315 105.726 73.6869L115.333 79.1706C118 80.6953 121.323 78.7848 121.323 75.726V69.434C121.323 68.7236 121.511 68.0257 121.868 67.4104C122.225 66.7952 122.738 66.2842 123.356 65.9287C123.974 65.5732 124.675 65.3857 125.389 65.3851C126.103 65.3845 126.804 65.5708 127.423 65.9252L165.224 87.5201C165.845 87.8749 166.361 88.3866 166.72 89.0035C167.079 89.6204 167.268 90.3206 167.268 91.0335C167.268 91.7464 167.079 92.4467 166.72 93.0636C166.361 93.6805 165.845 94.1922 165.224 94.547L127.414 116.133C124.7 117.676 121.323 115.738 121.323 112.615V109.492C121.323 93.7386 104.213 83.8735 90.4802 91.7178L49.3477 115.214C35.5508 123.086 35.5508 142.89 49.3477 150.762L90.4802 174.249C104.213 182.093 121.323 172.228 121.323 156.475V153.811C121.323 153.097 121.134 152.396 120.774 151.778C120.414 151.16 119.897 150.648 119.274 150.293L109.667 144.81C107 143.285 103.677 145.205 103.677 148.263V154.555C103.68 155.267 103.494 155.966 103.137 156.583C102.781 157.2 102.267 157.713 101.649 158.069C101.03 158.425 100.327 158.612 99.6122 158.611C98.8973 158.61 98.1953 158.421 97.5771 158.064L59.7762 136.478C59.155 136.124 58.6388 135.612 58.2799 134.995C57.9209 134.378 57.7319 133.678 57.7319 132.965C57.7319 132.252 57.9209 131.552 58.2799 130.935C58.6388 130.318 59.155 129.806 59.7762 129.452L97.5864 107.866C98.2054 107.513 98.9067 107.329 99.6199 107.331C100.333 107.333 101.033 107.522 101.65 107.878C102.267 108.235 102.779 108.746 103.135 109.361C103.491 109.976 103.678 110.674 103.677 111.384V114.507C103.677 130.26 120.787 140.125 134.52 132.281L175.652 108.784C189.449 100.912 189.449 81.1087 175.652 73.2368L134.52 49.7497Z" fill="black"/>
</svg>
