<svg width="225" height="225" viewBox="0 0 225 225" fill="none" xmlns="http://www.w3.org/2000/svg">
<g clip-path="url(#clip0_231_12)">
<path d="M0 0C74.25 0 148.5 0 225 0C225 74.25 225 148.5 225 225C150.75 225 76.5 225 0 225C0 150.75 0 76.5 0 0Z" fill="#FEFEFD"/>
<path d="M73.2499 49.9375C79.432 53.359 82.5403 58.3811 85.1328 64.8085C87.9485 75.171 86.4749 86.3663 81.9999 96C80.2499 98.9375 80.2499 98.9375 77.9999 101C77.5037 101.461 77.0074 101.923 76.496 102.398C71.0699 106.641 65.57 106.593 58.8789 106.664C54.9999 106 54.9999 106 45.9999 101C45.6699 109.91 45.3399 118.82 44.9999 128C42.0299 128 39.0599 128 35.9999 128C34.3149 126.315 34.8803 124.237 34.8755 121.989C34.8791 121.273 34.8827 120.556 34.8864 119.818C34.8863 119.067 34.8861 118.316 34.886 117.542C34.8867 115.047 34.8945 112.553 34.9023 110.059C34.9042 108.334 34.9056 106.609 34.9066 104.884C34.9104 100.335 34.9202 95.7859 34.9313 91.237C34.9415 86.5988 34.9461 81.9605 34.9511 77.3222C34.9619 68.2148 34.9789 59.1074 34.9999 50C37.6399 50 40.2799 50 42.9999 50C43.3299 51.65 43.6599 53.3 43.9999 55C44.8946 54.4946 45.7892 53.9893 46.7109 53.4687C56.0028 48.3971 62.9473 45.568 73.2499 49.9375Z" fill="#202D3D"/>
<path d="M8 137C12.5107 137.608 16.0977 139.458 20.0625 141.562C66.7059 165.442 122.828 171.799 173.178 156.003C179.057 154.041 184.886 151.954 190.686 149.769C193.106 148.965 195.493 148.45 198 148C198.99 149.98 198.99 149.98 200 152C183.264 170.321 148.866 178.122 125.098 179.879C120.94 180.041 116.786 180.104 112.625 180.125C111.493 180.132 111.493 180.132 110.339 180.139C75.6508 180.04 41.2421 168.242 14.4375 146.062C13.8946 145.614 13.3516 145.165 12.7922 144.703C10.0941 142.352 8.34774 140.655 8 137Z" fill="#FF9902"/>
<path d="M134 52C138.904 57.856 139.708 62.9094 139.524 70.3711C139.519 71.334 139.514 72.2969 139.509 73.289C139.488 76.3393 139.431 79.3877 139.375 82.4375C139.359 84.5123 139.344 86.5872 139.332 88.6621C139.298 92.4331 139.264 96.2039 139.193 99.9743C139.18 100.73 139.167 101.485 139.154 102.263C139 104 139 104 138 105C135.33 105.141 132.676 105.042 130 105C129.34 103.68 128.68 102.36 128 101C127.178 101.541 127.178 101.541 126.34 102.094C118.806 106.504 111.616 107.387 103 106C98.9782 104.06 96.9234 101.445 94.5626 97.75C93.3864 91.9997 93.0231 86.9539 95.6876 81.625C99.9776 76.7552 104.183 73.3625 110.797 72.7343C117.18 72.7681 122.828 73.3541 129 75C128.833 66.4035 128.833 66.4035 125 59C116.688 56.2294 106.279 57.676 98.0001 60C98.0001 57.36 98.0001 54.72 98.0001 52C108.941 47.6614 123.663 44.4036 134 52Z" fill="#23303F"/>
<path d="M146 50C147.602 49.8648 149.207 49.7679 150.812 49.6875C151.706 49.6295 152.599 49.5715 153.52 49.5117C156 50 156 50 157.459 52.0144C159.346 55.6701 160.754 59.3884 162.137 63.2578C162.421 64.0427 162.705 64.8275 162.998 65.6362C163.595 67.2876 164.189 68.94 164.781 70.5933C165.688 73.1262 166.606 75.655 167.525 78.1836C168.105 79.7914 168.684 81.3995 169.262 83.0078C169.674 84.1422 169.674 84.1422 170.095 85.2996C171.172 88.3263 172 90.762 172 94C172.66 94 173.32 94 174 94C174.105 93.1883 174.21 92.3766 174.318 91.5403C175.134 87.3056 176.462 83.4108 177.906 79.3555C178.191 78.5451 178.476 77.7347 178.769 76.8997C179.369 75.1971 179.971 73.4952 180.575 71.7942C181.502 69.1806 182.422 66.5642 183.34 63.9473C183.924 62.2915 184.509 60.6359 185.094 58.9805C185.508 57.8024 185.508 57.8024 185.93 56.6006C187.884 51.1158 187.884 51.1158 189 50C190.686 49.9279 192.375 49.9161 194.062 49.9375C194.982 49.9465 195.901 49.9555 196.848 49.9648C197.558 49.9764 198.268 49.988 199 50C198.379 54.964 196.866 59.3385 195.008 63.9492C194.706 64.7118 194.404 65.4744 194.093 66.2601C193.11 68.7384 192.118 71.2131 191.125 73.6875C190.443 75.397 189.76 77.1067 189.079 78.8164C187.708 82.2506 186.333 85.6832 184.955 89.1147C183.455 92.8546 181.972 96.6006 180.5 100.352C179.301 103.404 178.087 106.452 176.875 109.5C176.239 111.133 176.239 111.133 175.59 112.8C173.07 119.073 170.753 124.356 165.07 128.359C162.283 129.222 159.788 129.264 156.875 129.25C155.821 129.255 154.766 129.26 153.68 129.266C151 129 151 129 149 127C148.875 123.875 148.875 123.875 149 121C151 120 151 120 154.375 120.062C157.9 120.002 159.161 119.887 162 118C163.302 115.981 163.302 115.981 164.188 113.625C164.511 112.854 164.835 112.083 165.168 111.289C165.443 110.534 165.717 109.778 166 109C166.342 108.13 166.342 108.13 166.69 107.243C167.142 103.969 166.04 101.862 164.789 98.8203C164.545 98.219 164.302 97.6177 164.051 96.9982C163.252 95.0361 162.439 93.0807 161.625 91.125C161.073 89.7754 160.523 88.4254 159.974 87.075C158.33 83.044 156.667 79.0211 155 75C152.246 68.3543 152.246 68.3543 150.935 65.1772C150.16 63.304 149.379 61.4331 148.592 59.5649C148.247 58.7353 147.902 57.9056 147.547 57.0508C147.246 56.3358 146.946 55.6207 146.636 54.884C146 53 146 53 146 50Z" fill="#222E3E"/>
<path d="M64.9999 57C69.5274 58.9756 72.2599 61.6998 74.3046 66.2617C76.2135 73.7791 76.5737 83.6031 73.4374 90.8125C71.0887 94.4798 68.1318 96.662 63.9999 98C56.7498 98.8056 51.0411 97.0275 44.9999 93C44.6593 89.9272 44.6593 89.9272 44.707 86.0234C44.7112 85.3382 44.7154 84.6529 44.7198 83.9469C44.7366 81.7559 44.7743 79.5657 44.8124 77.375C44.8275 75.8906 44.8412 74.4062 44.8534 72.9219C44.8865 69.2809 44.9383 65.6405 44.9999 62C52.1661 57.8861 56.5312 56.1735 64.9999 57Z" fill="#F9F9F9"/>
<path d="M204.062 132.812C204.96 132.8 205.858 132.788 206.783 132.775C207.65 132.773 208.517 132.772 209.41 132.77C210.195 132.765 210.98 132.761 211.789 132.757C214.245 133.027 215.872 133.776 218 135C218.961 148.042 215.864 158.117 207.746 168.391C205.823 170.163 204.557 170.619 202 171C202.769 165.355 204.46 160.207 206.271 154.834C207.473 151.146 208.507 147.889 208 144C206.15 141.719 206.15 141.719 203.294 141.773C202.174 141.783 201.053 141.794 199.898 141.805C198.687 141.811 197.475 141.818 196.227 141.824C194.956 141.841 193.685 141.858 192.375 141.875C191.096 141.884 189.817 141.893 188.5 141.902C185.333 141.926 182.167 141.959 179 142C180.526 138.701 181.484 137.372 184.812 135.812C185.479 135.489 186.145 135.165 186.832 134.832C192.473 132.667 198.1 132.817 204.062 132.812Z" fill="#FF9A07"/>
<path d="M126.688 81C127.451 81.33 128.214 81.66 129 82C129.347 85.7269 129.51 89.2833 129 93C125.321 96.6794 121.067 98.039 116 99C112.508 99 109.207 98.8798 106.297 96.7578C104.117 93.8026 104.477 90.9389 104.571 87.3828C105 85 105 85 107.375 82.4375C113.565 79.0477 119.875 79.1526 126.688 81Z" fill="#F5F6F6"/>
</g>
<defs>
<clipPath id="clip0_231_12">
<rect width="225" height="225" fill="white"/>
</clipPath>
</defs>
</svg>
