<svg width="225" height="225" viewBox="0 0 225 225" fill="none" xmlns="http://www.w3.org/2000/svg">
<rect width="225" height="225" fill="white"/>
<path d="M64.6567 48V177.167H35V48H64.6567ZM138.669 48C138.669 75.0862 128.446 100.345 110.156 119.481L108.36 121.309L149.325 177.167H112.72L68.2023 116.458L79.6917 107.856C98.1496 94.035 108.98 73.1229 109.639 50.2217L109.671 48H138.669ZM173.854 144.875C178.136 144.875 182.243 146.576 185.271 149.604C188.299 152.632 190 156.739 190 161.021C190 165.303 188.299 169.41 185.271 172.438C182.243 175.466 178.136 177.167 173.854 177.167C169.572 177.167 165.465 175.466 162.437 172.438C159.409 169.41 157.708 165.303 157.708 161.021C157.708 156.739 159.409 152.632 162.437 149.604C165.465 146.576 169.572 144.875 173.854 144.875Z" fill="black"/>
</svg>
